<svg width="2000" height="2000" viewBox="0 0 2000 2000" fill="none" xmlns="http://www.w3.org/2000/svg">
<g clip-path="url(#clip0_28_18)">
<rect width="2000" height="2000" rx="293" fill="white"/>
<rect x="12.5" y="12.5" width="1975" height="1975" rx="280.5" fill="#FFE6DA" stroke="#E3E3E3" stroke-width="25"/>
<g filter="url(#filter0_ddddddddi_28_18)">
<path d="M1246.24 659.274L923.722 449.146L868.087 474.343C868.087 474.343 854.196 577.21 695.916 577.21C685.325 577.21 675.338 576.593 665.923 575.441C534.634 559.378 514.429 439.334 514.358 438.975L468.568 410.156L95.6836 518.726L58.5935 529.514L71.2623 566.115L167.345 843.28L176.732 870.249L204.74 867.86L354.321 855.3L322.748 1379.43L684.697 1245.43L987.447 1274.25L1027.36 1278.02V943.913L1106.5 961.635L1134.66 967.954L1147.18 941.601L1259.36 706.123L1273.25 676.919L1246.24 659.274Z" fill="#F15A29"/>
</g>
<g filter="url(#filter1_ddddddi_28_18)">
<path d="M641.304 1058.34V1168.96H435.015V1058.34H472.985V788.243H440.34L430.384 872.437H365.326V680.081H711.919V872.437H647.092L637.136 788.243H603.334V1058.34H641.304Z" fill="#FFE6DA"/>
<path d="M870.977 1174.49C842.268 1174.49 817.34 1167.42 796.194 1153.29C774.894 1139.36 758.533 1119.39 747.111 1093.37C735.843 1067.35 730.21 1036.93 730.21 1002.11C730.21 967.694 735.766 937.785 746.879 912.383C757.838 887.187 773.35 867.726 793.416 854C813.481 840.275 837.02 833.413 864.031 833.413C888.881 833.413 910.799 839.866 929.784 852.771C948.769 865.882 963.432 884.421 973.774 908.389C984.27 932.356 989.518 960.319 989.518 992.276C989.518 1003.34 988.283 1013.79 985.813 1023.62H841.573C841.573 1042.87 847.053 1058.34 858.011 1070.02C868.97 1081.49 882.167 1087.23 897.602 1087.23C909.333 1087.23 922.221 1084.56 936.267 1079.24C950.313 1073.7 964.436 1065.2 978.636 1053.73L982.572 1055.58V1138.23C966.674 1150.32 950.313 1159.44 933.489 1165.58C916.819 1171.52 895.981 1174.49 870.977 1174.49ZM841.573 960.626V969.537H900.844V963.084C900.844 948.54 898.297 936.044 893.203 925.596C888.264 914.944 880.855 909.618 870.977 909.618C862.796 909.618 855.85 915.046 850.139 925.904C844.429 936.556 841.573 948.13 841.573 960.626Z" fill="#FFE6DA"/>
<path d="M1246.44 759.629C1282.77 757.092 1314.41 760.942 1341.34 771.178C1368.28 781.414 1391.13 796.829 1409.91 817.422C1428.68 838.015 1443.09 863.107 1453.13 892.697C1463.65 922.256 1470.16 954.889 1472.68 990.598C1475.2 1026.31 1472.85 1059.33 1465.63 1089.66C1458.88 1119.95 1447.4 1146.39 1431.21 1168.96C1414.98 1191.06 1394.25 1209.05 1369.02 1222.93C1343.75 1236.35 1314.35 1244.22 1280.81 1246.57L1065.62 1261.59L1043.49 946.457L1031.49 775.578L1138.84 767.142L1229.06 760.843L1246.44 759.629ZM1247.48 1162.21C1267.04 1160.85 1284.46 1155.67 1299.74 1146.68C1315.02 1137.69 1327.53 1125.86 1337.26 1111.2C1346.96 1096.08 1353.91 1078.58 1358.13 1058.72C1362.78 1038.35 1364.03 1016.36 1361.9 992.741C1358.32 948.717 1345.85 914.635 1324.49 890.495C1303.09 865.891 1270.27 855.134 1226.02 858.223L1180.88 861.375L1149.16 863.59L1153.08 919.116L1170.62 1167.58L1247.48 1162.21Z" fill="#F15A29"/>
<path d="M1856.49 714.992L1869.9 904.897C1871.63 929.476 1868.55 952.061 1860.64 972.653C1853.16 992.748 1841.77 1010.32 1826.45 1025.37C1811.56 1039.93 1793.2 1051.69 1771.36 1060.68C1749.53 1069.66 1725.57 1075.06 1699.48 1076.88C1673.4 1078.7 1649.17 1076.9 1626.78 1071.47C1604.4 1066.04 1584.83 1057.39 1568.08 1045.51C1551.29 1033.17 1537.8 1017.8 1527.61 999.401C1517.38 980.542 1511.4 958.822 1509.67 934.244L1495.97 740.164L1603.57 732.652L1615.79 905.862C1617.05 916.96 1619.43 927.512 1622.94 937.519C1626.89 947.031 1631.94 955.533 1638.08 963.026C1644.66 970.024 1652.54 975.532 1661.72 979.551C1670.86 983.107 1681.26 984.479 1692.9 983.666C1705.48 982.787 1716.03 979.721 1724.55 974.465C1733.54 969.177 1740.8 962.612 1746.33 954.769C1751.83 946.463 1755.62 937.11 1757.69 926.713C1760.2 915.819 1761.28 904.559 1760.93 892.932L1748.89 722.504L1856.49 714.992ZM1775.26 1096.05L1882.86 1088.54L1886.25 1136.54C1887.99 1161.12 1884.88 1183.47 1876.94 1203.6C1869.5 1224.16 1858.12 1241.96 1842.8 1257.02C1827.94 1272.03 1809.6 1284.03 1787.76 1293.01C1765.93 1302 1741.97 1307.4 1715.89 1309.22C1689.8 1311.04 1665.57 1309.24 1643.18 1303.81C1620.8 1298.38 1601.21 1289.5 1584.43 1277.15C1567.64 1264.81 1554.14 1249.21 1543.91 1230.35C1533.72 1211.95 1527.75 1190.47 1526.02 1165.89L1524.79 1148.5L1629.94 1106.2L1632.24 1138.9C1635.2 1167.58 1642.97 1188.01 1655.53 1200.19C1668.56 1212.32 1687.65 1217.52 1712.8 1215.76C1736.09 1214.13 1753.08 1206.19 1763.78 1191.93C1774.47 1177.67 1779.17 1158 1777.87 1132.92L1775.26 1096.05Z" fill="#F15A29"/>
</g>
<path d="M1148.88 864.939L1180.39 862.718L1228.27 761.876L1031.96 776.656L1043.88 948.062L1132.86 962.274L1152.77 920.637L1148.88 864.939Z" fill="#FFE6DA"/>
<g filter="url(#filter2_dddddi_28_18)">
<path d="M1159.83 1342.69C1162 1348.72 1162.85 1354.71 1162.38 1360.64C1161.91 1366.57 1161.23 1371.45 1160.34 1375.3C1159.55 1379.15 1158.48 1382.83 1157.12 1386.34C1154.05 1394.31 1150.1 1400.31 1145.29 1404.33C1143.46 1389.03 1140.93 1379 1137.68 1374.24C1134.54 1369.5 1131.23 1366.2 1127.75 1364.36C1124.38 1362.53 1120.7 1361.46 1116.71 1361.15C1112.72 1360.83 1109.44 1360.96 1106.85 1361.54C1104.26 1362.12 1101.98 1363.06 1100.02 1364.38C1095.59 1367.26 1093.21 1370.74 1092.89 1374.82C1092.57 1378.9 1093.31 1382.53 1095.11 1385.7C1096.92 1388.78 1099.38 1391.76 1102.48 1394.65C1105.68 1397.44 1109.32 1400.22 1113.41 1402.99L1125.95 1411.46C1136.72 1418.67 1144.04 1424.53 1147.89 1429.04C1155.5 1437.95 1158.94 1446.98 1158.22 1456.12C1157.28 1468.07 1152.4 1477.81 1143.59 1485.33C1132.46 1495.02 1116.59 1499.05 1095.99 1497.42C1077.22 1495.94 1063.47 1490.46 1054.74 1480.97C1052.21 1478.22 1050.47 1475.54 1049.5 1472.92C1050.85 1465.69 1054.65 1459.1 1060.89 1453.14C1066.92 1447.35 1072.6 1444.18 1077.93 1443.62C1077.44 1444.85 1077.1 1446.73 1076.9 1449.26C1076.7 1451.79 1077.18 1455.01 1078.34 1458.91C1079.5 1462.72 1081.32 1466.34 1083.79 1469.76C1089.33 1477.63 1095.94 1481.87 1103.62 1482.47C1111.3 1483.08 1117.08 1481.77 1120.95 1478.56C1124.82 1475.34 1126.93 1471.5 1127.29 1467.03C1127.64 1462.56 1126.91 1458.73 1125.11 1455.56C1123.31 1452.38 1120.81 1449.35 1117.61 1446.46C1114.51 1443.57 1110.92 1440.75 1106.84 1437.98L1094.3 1429.51C1083.64 1422.02 1076.41 1415.77 1072.6 1410.78C1064.97 1400.79 1061.59 1390.3 1062.46 1379.31C1063.37 1367.75 1068.97 1358.75 1079.26 1352.32C1089.03 1346.25 1100.82 1343.75 1114.62 1344.84L1140.15 1348.62C1146.37 1349.11 1150.75 1348.72 1153.29 1347.45C1155.85 1346.09 1158.03 1344.5 1159.83 1342.69Z" fill="#F15A29"/>
<path d="M1246.57 1299.5C1243.94 1306.82 1242.21 1315.73 1241.38 1326.23C1240.56 1336.63 1240.23 1343.3 1240.39 1346.25C1240.65 1349.21 1241.19 1351.6 1242.03 1353.42C1243.64 1356.48 1247.13 1358.23 1252.47 1358.65L1291.55 1361.73C1291.12 1367.17 1289.48 1371.25 1286.62 1373.96C1281.45 1378.83 1275.41 1381 1268.5 1380.45C1265.1 1380.18 1262.13 1379.46 1259.58 1378.28C1254.97 1375.96 1251.35 1374.7 1248.73 1374.49C1246.1 1374.28 1243.92 1374.65 1242.19 1375.59C1240.46 1376.43 1239.03 1377.79 1237.9 1379.65C1235.88 1383.01 1234.4 1390.58 1233.47 1402.34C1232.55 1414.1 1231.94 1426.18 1231.64 1438.58C1231.45 1450.99 1232.48 1461.48 1234.73 1470.07C1237 1478.57 1240.93 1485.14 1246.53 1489.78C1252.13 1494.43 1260.13 1497.16 1270.53 1497.98C1270.29 1501 1267.97 1504.43 1263.56 1508.29C1262.4 1509.37 1261.41 1510.08 1260.6 1510.41C1243.4 1509.05 1230.68 1505.99 1222.45 1501.23C1213.01 1495.6 1206.7 1486.4 1203.5 1473.62C1200.31 1460.66 1199.7 1441.78 1201.65 1416.99C1203.36 1395.32 1203.79 1382.49 1202.93 1378.51C1202.08 1374.43 1201.22 1371.72 1200.34 1370.38C1199.29 1368.83 1196.61 1366.81 1192.31 1364.32C1198.7 1360.23 1205.35 1352.19 1212.26 1340.22L1220.76 1325.48C1226.83 1314.22 1231.8 1307.04 1235.66 1303.92C1239.63 1300.71 1243.27 1299.24 1246.57 1299.5Z" fill="#F15A29"/>
<path d="M1379.68 1468.3L1382.38 1435.94C1383.98 1415.63 1384.5 1402.32 1383.92 1396.01C1383.34 1389.7 1382.8 1385.31 1382.32 1382.83C1381.93 1380.25 1381.39 1377.86 1380.68 1375.65L1378.45 1368.58L1421.46 1371.98L1420.21 1378.63C1419.25 1383.24 1418.33 1390.02 1417.43 1398.95L1415.1 1421.06C1413.27 1438.04 1411.77 1453.91 1410.61 1468.69C1409.44 1483.46 1407.52 1496.02 1404.85 1506.38C1402.27 1516.74 1399.16 1525.78 1395.52 1533.52C1391.88 1541.25 1387.89 1547.83 1383.55 1553.26C1379.2 1558.79 1374.73 1563.32 1370.15 1566.87C1362.21 1573.29 1353.55 1577.69 1344.16 1580.08C1342.28 1579.15 1340.5 1577.55 1338.82 1575.26C1337.23 1573.08 1336.32 1571.05 1336.08 1569.18C1344.97 1565.48 1352.36 1559.31 1358.22 1550.68C1366.52 1538.42 1372.6 1520.27 1376.45 1496.21C1363.96 1510.78 1349.5 1517.42 1333.07 1516.12C1321.41 1515.2 1312.73 1509.92 1307.03 1500.28C1301.6 1490.95 1299.5 1478.56 1300.72 1463.1L1302.27 1443.42C1302.62 1439.04 1302.92 1434.57 1303.18 1429.99L1304.23 1416.72C1304.7 1408.25 1304.88 1401.66 1304.76 1396.96C1304.75 1392.16 1304.57 1388.19 1304.24 1385.03C1304 1381.78 1303.59 1378.92 1303.01 1376.42C1302.43 1373.84 1301.74 1371.43 1300.93 1369.22L1298.26 1362.26L1342.73 1365.77C1339.1 1379.47 1335.77 1405.66 1332.72 1444.35C1331.47 1460.1 1331.47 1470.66 1332.71 1476.04C1333.95 1481.42 1335.69 1485.42 1337.93 1488.04C1340.27 1490.57 1343.38 1491.99 1347.27 1492.3C1351.16 1492.61 1354.61 1492.29 1357.62 1491.35C1360.73 1490.33 1363.58 1488.89 1366.17 1487.04C1371.23 1483.72 1375.62 1478.93 1379.34 1472.67L1379.68 1468.3Z" fill="#F15A29"/>
<path d="M1490.06 1458.37C1487.58 1489.87 1487.72 1512.28 1490.48 1525.6L1447.47 1522.21C1450.93 1512.99 1453.51 1502 1455.21 1489.22C1459.11 1458.33 1461.74 1434.33 1463.08 1417.22C1464.43 1400.11 1465.29 1388.64 1465.65 1382.8C1466.02 1376.86 1466.39 1370.92 1466.76 1364.98C1467.84 1343.84 1467.87 1330.5 1466.84 1324.94C1465.92 1319.29 1464.92 1315.2 1463.85 1312.67C1462.88 1310.05 1461.7 1307.66 1460.3 1305.5L1456.02 1298.41L1509.24 1302.61C1505.75 1312.21 1503.4 1321.51 1502.2 1330.51C1501.11 1339.43 1500.14 1347.32 1499.3 1354.2C1498.57 1361.09 1497.8 1368.26 1497.02 1375.73C1495.84 1388.16 1494.58 1402.98 1493.22 1420.18L1490.06 1458.37Z" fill="#F15A29"/>
<path d="M1632.33 1486.9C1635.64 1489.51 1637.07 1493.73 1636.61 1499.57C1636.16 1505.3 1634.98 1510.29 1633.08 1514.55C1631.18 1518.8 1628.14 1522.67 1623.95 1526.15C1614.53 1534.01 1600.87 1537.24 1582.99 1535.83C1562.18 1534.19 1546.95 1525.26 1537.27 1509.04C1528.73 1494.58 1525.38 1475.68 1527.22 1452.35C1529.07 1428.83 1537.04 1410.87 1551.12 1398.49C1564.47 1386.73 1581.69 1381.68 1602.79 1383.34C1617.47 1384.5 1628.6 1389.68 1636.19 1398.89C1642.16 1406.2 1644.8 1414.33 1644.09 1423.28C1643.4 1432.12 1641.01 1440 1636.95 1446.92C1632.99 1453.75 1627.45 1459.48 1620.33 1464.1C1605.69 1473.7 1585.95 1477.82 1561.11 1476.45C1561.61 1496.15 1566.71 1509.7 1576.39 1517.12C1579.9 1519.74 1584.72 1521.3 1590.84 1521.78C1596.97 1522.26 1603.73 1519.57 1611.14 1513.7C1618.55 1507.83 1625.61 1498.89 1632.33 1486.9ZM1561.33 1462.53C1592.21 1462.91 1608.74 1449.25 1610.93 1421.54C1611.75 1411.14 1609.19 1403.9 1603.25 1399.81C1601.2 1398.47 1598.43 1397.67 1594.93 1397.39C1591.43 1397.12 1587.8 1397.91 1584.03 1399.76C1580.37 1401.62 1577.03 1404.88 1574.02 1409.54C1567.55 1419.69 1563.44 1435.84 1561.69 1458.01L1561.33 1462.53Z" fill="#F15A29"/>
</g>
<g filter="url(#filter3_dddi_28_18)">
<path d="M1721.68 1389.33C1721.43 1394.67 1719.86 1399.58 1716.97 1404.06C1714.11 1408.54 1710.31 1412 1705.59 1414.44C1700.86 1416.89 1695.83 1417.99 1690.5 1417.74C1685.19 1417.5 1680.3 1415.94 1675.81 1413.08C1671.33 1410.22 1667.86 1406.42 1665.39 1401.69C1662.94 1396.97 1661.85 1391.94 1662.09 1386.6C1662.33 1381.3 1663.89 1376.4 1666.75 1371.92C1669.64 1367.41 1673.45 1363.94 1678.18 1361.49C1682.9 1359.05 1687.92 1357.95 1693.23 1358.19C1698.56 1358.44 1703.47 1359.99 1707.95 1362.86C1712.43 1365.72 1715.9 1369.53 1718.34 1374.28C1720.81 1379.01 1721.92 1384.03 1721.68 1389.33ZM1715.9 1389.07C1716.2 1382.44 1714.11 1376.67 1709.62 1371.77C1705.15 1366.85 1699.6 1364.24 1692.97 1363.93C1686.33 1363.63 1680.55 1365.72 1675.63 1370.21C1670.73 1374.68 1668.13 1380.23 1667.83 1386.87C1667.52 1393.5 1669.6 1399.28 1674.07 1404.2C1678.56 1409.1 1684.13 1411.7 1690.76 1412.01C1697.4 1412.31 1703.16 1410.23 1708.06 1405.76C1712.98 1401.27 1715.6 1395.7 1715.9 1389.07ZM1679.09 1371.43L1693.33 1372.08C1697.37 1372.27 1700.24 1373.22 1701.96 1374.94C1703.71 1376.64 1704.52 1378.85 1704.4 1381.58C1704.3 1383.72 1703.52 1385.53 1702.07 1387.03C1700.62 1388.53 1698.4 1389.56 1695.4 1390.12C1696.6 1390.65 1697.48 1391.18 1698.03 1391.73C1698.8 1392.5 1699.59 1393.61 1700.41 1395.09C1700.46 1395.19 1702.04 1398.34 1705.14 1404.53L1695.78 1404.1C1693.01 1397.9 1691.13 1394.19 1690.15 1392.97C1689.16 1391.73 1688.15 1391.08 1687.11 1391.04C1686.87 1391.02 1686.55 1391.05 1686.13 1391.11L1685.55 1403.63L1677.63 1403.27L1679.09 1371.43ZM1686.39 1385.29L1689.83 1385.45C1692.12 1385.56 1693.75 1385.27 1694.72 1384.58C1695.69 1383.87 1696.2 1382.93 1696.25 1381.76C1696.31 1380.59 1695.9 1379.62 1695.02 1378.85C1694.17 1378.05 1692.66 1377.6 1690.51 1377.5L1686.76 1377.33L1686.39 1385.29Z" fill="#F15A29"/>
</g>
</g>
<defs>
<filter id="filter0_ddddddddi_28_18" x="55.5935" y="407.156" width="1225.66" height="980.274" filterUnits="userSpaceOnUse" color-interpolation-filters="sRGB">
<feFlood flood-opacity="0" result="BackgroundImageFix"/>
<feColorMatrix in="SourceAlpha" type="matrix" values="0 0 0 0 0 0 0 0 0 0 0 0 0 0 0 0 0 0 127 0" result="hardAlpha"/>
<feOffset dx="1" dy="1"/>
<feComposite in2="hardAlpha" operator="out"/>
<feColorMatrix type="matrix" values="0 0 0 0 0.5 0 0 0 0 0.15 0 0 0 0 0.02 0 0 0 1 0"/>
<feBlend mode="normal" in2="BackgroundImageFix" result="effect1_dropShadow_28_18"/>
<feColorMatrix in="SourceAlpha" type="matrix" values="0 0 0 0 0 0 0 0 0 0 0 0 0 0 0 0 0 0 127 0" result="hardAlpha"/>
<feOffset dx="2" dy="2"/>
<feComposite in2="hardAlpha" operator="out"/>
<feColorMatrix type="matrix" values="0 0 0 0 0.5 0 0 0 0 0.15 0 0 0 0 0.02 0 0 0 1 0"/>
<feBlend mode="normal" in2="effect1_dropShadow_28_18" result="effect2_dropShadow_28_18"/>
<feColorMatrix in="SourceAlpha" type="matrix" values="0 0 0 0 0 0 0 0 0 0 0 0 0 0 0 0 0 0 127 0" result="hardAlpha"/>
<feOffset dx="3" dy="3"/>
<feComposite in2="hardAlpha" operator="out"/>
<feColorMatrix type="matrix" values="0 0 0 0 0.5 0 0 0 0 0.15 0 0 0 0 0.02 0 0 0 1 0"/>
<feBlend mode="normal" in2="effect2_dropShadow_28_18" result="effect3_dropShadow_28_18"/>
<feColorMatrix in="SourceAlpha" type="matrix" values="0 0 0 0 0 0 0 0 0 0 0 0 0 0 0 0 0 0 127 0" result="hardAlpha"/>
<feOffset dx="4" dy="4"/>
<feComposite in2="hardAlpha" operator="out"/>
<feColorMatrix type="matrix" values="0 0 0 0 0.5 0 0 0 0 0.15 0 0 0 0 0.02 0 0 0 1 0"/>
<feBlend mode="normal" in2="effect3_dropShadow_28_18" result="effect4_dropShadow_28_18"/>
<feColorMatrix in="SourceAlpha" type="matrix" values="0 0 0 0 0 0 0 0 0 0 0 0 0 0 0 0 0 0 127 0" result="hardAlpha"/>
<feOffset dx="5" dy="5"/>
<feComposite in2="hardAlpha" operator="out"/>
<feColorMatrix type="matrix" values="0 0 0 0 0.5 0 0 0 0 0.15 0 0 0 0 0.02 0 0 0 1 0"/>
<feBlend mode="normal" in2="effect4_dropShadow_28_18" result="effect5_dropShadow_28_18"/>
<feColorMatrix in="SourceAlpha" type="matrix" values="0 0 0 0 0 0 0 0 0 0 0 0 0 0 0 0 0 0 127 0" result="hardAlpha"/>
<feOffset dx="6" dy="6"/>
<feComposite in2="hardAlpha" operator="out"/>
<feColorMatrix type="matrix" values="0 0 0 0 0.5 0 0 0 0 0.15 0 0 0 0 0.02 0 0 0 1 0"/>
<feBlend mode="normal" in2="effect5_dropShadow_28_18" result="effect6_dropShadow_28_18"/>
<feColorMatrix in="SourceAlpha" type="matrix" values="0 0 0 0 0 0 0 0 0 0 0 0 0 0 0 0 0 0 127 0" result="hardAlpha"/>
<feOffset dx="7" dy="7"/>
<feComposite in2="hardAlpha" operator="out"/>
<feColorMatrix type="matrix" values="0 0 0 0 0.5 0 0 0 0 0.15 0 0 0 0 0.02 0 0 0 1 0"/>
<feBlend mode="normal" in2="effect6_dropShadow_28_18" result="effect7_dropShadow_28_18"/>
<feColorMatrix in="SourceAlpha" type="matrix" values="0 0 0 0 0 0 0 0 0 0 0 0 0 0 0 0 0 0 127 0" result="hardAlpha"/>
<feOffset dx="8" dy="8"/>
<feComposite in2="hardAlpha" operator="out"/>
<feColorMatrix type="matrix" values="0 0 0 0 0.5 0 0 0 0 0.15 0 0 0 0 0.02 0 0 0 1 0"/>
<feBlend mode="normal" in2="effect7_dropShadow_28_18" result="effect8_dropShadow_28_18"/>
<feBlend mode="normal" in="SourceGraphic" in2="effect8_dropShadow_28_18" result="shape"/>
<feColorMatrix in="SourceAlpha" type="matrix" values="0 0 0 0 0 0 0 0 0 0 0 0 0 0 0 0 0 0 127 0" result="hardAlpha"/>
<feOffset dx="-3" dy="-3"/>
<feGaussianBlur stdDeviation="2"/>
<feComposite in2="hardAlpha" operator="arithmetic" k2="-1" k3="1"/>
<feColorMatrix type="matrix" values="0 0 0 0 1 0 0 0 0 0.88 0 0 0 0 0.55 0 0 0 0.65 0"/>
<feBlend mode="normal" in2="shape" result="effect9_innerShadow_28_18"/>
</filter>
<filter id="filter1_ddddddi_28_18" x="362.326" y="677.081" width="1530.39" height="638.824" filterUnits="userSpaceOnUse" color-interpolation-filters="sRGB">
<feFlood flood-opacity="0" result="BackgroundImageFix"/>
<feColorMatrix in="SourceAlpha" type="matrix" values="0 0 0 0 0 0 0 0 0 0 0 0 0 0 0 0 0 0 127 0" result="hardAlpha"/>
<feOffset dx="1" dy="1"/>
<feComposite in2="hardAlpha" operator="out"/>
<feColorMatrix type="matrix" values="0 0 0 0 0.5 0 0 0 0 0.15 0 0 0 0 0.02 0 0 0 1 0"/>
<feBlend mode="normal" in2="BackgroundImageFix" result="effect1_dropShadow_28_18"/>
<feColorMatrix in="SourceAlpha" type="matrix" values="0 0 0 0 0 0 0 0 0 0 0 0 0 0 0 0 0 0 127 0" result="hardAlpha"/>
<feOffset dx="2" dy="2"/>
<feComposite in2="hardAlpha" operator="out"/>
<feColorMatrix type="matrix" values="0 0 0 0 0.5 0 0 0 0 0.15 0 0 0 0 0.02 0 0 0 1 0"/>
<feBlend mode="normal" in2="effect1_dropShadow_28_18" result="effect2_dropShadow_28_18"/>
<feColorMatrix in="SourceAlpha" type="matrix" values="0 0 0 0 0 0 0 0 0 0 0 0 0 0 0 0 0 0 127 0" result="hardAlpha"/>
<feOffset dx="3" dy="3"/>
<feComposite in2="hardAlpha" operator="out"/>
<feColorMatrix type="matrix" values="0 0 0 0 0.5 0 0 0 0 0.15 0 0 0 0 0.02 0 0 0 1 0"/>
<feBlend mode="normal" in2="effect2_dropShadow_28_18" result="effect3_dropShadow_28_18"/>
<feColorMatrix in="SourceAlpha" type="matrix" values="0 0 0 0 0 0 0 0 0 0 0 0 0 0 0 0 0 0 127 0" result="hardAlpha"/>
<feOffset dx="4" dy="4"/>
<feComposite in2="hardAlpha" operator="out"/>
<feColorMatrix type="matrix" values="0 0 0 0 0.5 0 0 0 0 0.15 0 0 0 0 0.02 0 0 0 1 0"/>
<feBlend mode="normal" in2="effect3_dropShadow_28_18" result="effect4_dropShadow_28_18"/>
<feColorMatrix in="SourceAlpha" type="matrix" values="0 0 0 0 0 0 0 0 0 0 0 0 0 0 0 0 0 0 127 0" result="hardAlpha"/>
<feOffset dx="5" dy="5"/>
<feComposite in2="hardAlpha" operator="out"/>
<feColorMatrix type="matrix" values="0 0 0 0 0.5 0 0 0 0 0.15 0 0 0 0 0.02 0 0 0 1 0"/>
<feBlend mode="normal" in2="effect4_dropShadow_28_18" result="effect5_dropShadow_28_18"/>
<feColorMatrix in="SourceAlpha" type="matrix" values="0 0 0 0 0 0 0 0 0 0 0 0 0 0 0 0 0 0 127 0" result="hardAlpha"/>
<feOffset dx="6" dy="6"/>
<feComposite in2="hardAlpha" operator="out"/>
<feColorMatrix type="matrix" values="0 0 0 0 0.600962 0 0 0 0 0.207002 0 0 0 0 0.060674 0 0 0 1 0"/>
<feBlend mode="normal" in2="effect5_dropShadow_28_18" result="effect6_dropShadow_28_18"/>
<feBlend mode="normal" in="SourceGraphic" in2="effect6_dropShadow_28_18" result="shape"/>
<feColorMatrix in="SourceAlpha" type="matrix" values="0 0 0 0 0 0 0 0 0 0 0 0 0 0 0 0 0 0 127 0" result="hardAlpha"/>
<feOffset dx="-3" dy="-3"/>
<feGaussianBlur stdDeviation="2"/>
<feComposite in2="hardAlpha" operator="arithmetic" k2="-1" k3="1"/>
<feColorMatrix type="matrix" values="0 0 0 0 1 0 0 0 0 0.88 0 0 0 0 0.55 0 0 0 0.65 0"/>
<feBlend mode="normal" in2="shape" result="effect7_innerShadow_28_18"/>
</filter>
<filter id="filter2_dddddi_28_18" x="1046.5" y="1295.41" width="602.704" height="289.675" filterUnits="userSpaceOnUse" color-interpolation-filters="sRGB">
<feFlood flood-opacity="0" result="BackgroundImageFix"/>
<feColorMatrix in="SourceAlpha" type="matrix" values="0 0 0 0 0 0 0 0 0 0 0 0 0 0 0 0 0 0 127 0" result="hardAlpha"/>
<feOffset dx="1" dy="1"/>
<feComposite in2="hardAlpha" operator="out"/>
<feColorMatrix type="matrix" values="0 0 0 0 0.5 0 0 0 0 0.15 0 0 0 0 0.02 0 0 0 1 0"/>
<feBlend mode="normal" in2="BackgroundImageFix" result="effect1_dropShadow_28_18"/>
<feColorMatrix in="SourceAlpha" type="matrix" values="0 0 0 0 0 0 0 0 0 0 0 0 0 0 0 0 0 0 127 0" result="hardAlpha"/>
<feOffset dx="2" dy="2"/>
<feComposite in2="hardAlpha" operator="out"/>
<feColorMatrix type="matrix" values="0 0 0 0 0.5 0 0 0 0 0.15 0 0 0 0 0.02 0 0 0 1 0"/>
<feBlend mode="normal" in2="effect1_dropShadow_28_18" result="effect2_dropShadow_28_18"/>
<feColorMatrix in="SourceAlpha" type="matrix" values="0 0 0 0 0 0 0 0 0 0 0 0 0 0 0 0 0 0 127 0" result="hardAlpha"/>
<feOffset dx="3" dy="3"/>
<feComposite in2="hardAlpha" operator="out"/>
<feColorMatrix type="matrix" values="0 0 0 0 0.5 0 0 0 0 0.15 0 0 0 0 0.02 0 0 0 1 0"/>
<feBlend mode="normal" in2="effect2_dropShadow_28_18" result="effect3_dropShadow_28_18"/>
<feColorMatrix in="SourceAlpha" type="matrix" values="0 0 0 0 0 0 0 0 0 0 0 0 0 0 0 0 0 0 127 0" result="hardAlpha"/>
<feOffset dx="4" dy="4"/>
<feComposite in2="hardAlpha" operator="out"/>
<feColorMatrix type="matrix" values="0 0 0 0 0.5 0 0 0 0 0.15 0 0 0 0 0.02 0 0 0 1 0"/>
<feBlend mode="normal" in2="effect3_dropShadow_28_18" result="effect4_dropShadow_28_18"/>
<feColorMatrix in="SourceAlpha" type="matrix" values="0 0 0 0 0 0 0 0 0 0 0 0 0 0 0 0 0 0 127 0" result="hardAlpha"/>
<feOffset dx="5" dy="5"/>
<feComposite in2="hardAlpha" operator="out"/>
<feColorMatrix type="matrix" values="0 0 0 0 0.5 0 0 0 0 0.15 0 0 0 0 0.02 0 0 0 1 0"/>
<feBlend mode="normal" in2="effect4_dropShadow_28_18" result="effect5_dropShadow_28_18"/>
<feBlend mode="normal" in="SourceGraphic" in2="effect5_dropShadow_28_18" result="shape"/>
<feColorMatrix in="SourceAlpha" type="matrix" values="0 0 0 0 0 0 0 0 0 0 0 0 0 0 0 0 0 0 127 0" result="hardAlpha"/>
<feOffset dx="-3" dy="-3"/>
<feGaussianBlur stdDeviation="2"/>
<feComposite in2="hardAlpha" operator="arithmetic" k2="-1" k3="1"/>
<feColorMatrix type="matrix" values="0 0 0 0 1 0 0 0 0 0.88 0 0 0 0 0.55 0 0 0 0.65 0"/>
<feBlend mode="normal" in2="shape" result="effect6_innerShadow_28_18"/>
</filter>
<filter id="filter3_dddi_28_18" x="1657.73" y="1353.83" width="68.3154" height="68.2778" filterUnits="userSpaceOnUse" color-interpolation-filters="sRGB">
<feFlood flood-opacity="0" result="BackgroundImageFix"/>
<feColorMatrix in="SourceAlpha" type="matrix" values="0 0 0 0 0 0 0 0 0 0 0 0 0 0 0 0 0 0 127 0" result="hardAlpha"/>
<feOffset dx="1" dy="1"/>
<feComposite in2="hardAlpha" operator="out"/>
<feColorMatrix type="matrix" values="0 0 0 0 0.5 0 0 0 0 0.15 0 0 0 0 0.02 0 0 0 1 0"/>
<feBlend mode="normal" in2="BackgroundImageFix" result="effect1_dropShadow_28_18"/>
<feColorMatrix in="SourceAlpha" type="matrix" values="0 0 0 0 0 0 0 0 0 0 0 0 0 0 0 0 0 0 127 0" result="hardAlpha"/>
<feOffset dx="2" dy="2"/>
<feComposite in2="hardAlpha" operator="out"/>
<feColorMatrix type="matrix" values="0 0 0 0 0.5 0 0 0 0 0.15 0 0 0 0 0.02 0 0 0 1 0"/>
<feBlend mode="normal" in2="effect1_dropShadow_28_18" result="effect2_dropShadow_28_18"/>
<feColorMatrix in="SourceAlpha" type="matrix" values="0 0 0 0 0 0 0 0 0 0 0 0 0 0 0 0 0 0 127 0" result="hardAlpha"/>
<feOffset dx="3" dy="3"/>
<feComposite in2="hardAlpha" operator="out"/>
<feColorMatrix type="matrix" values="0 0 0 0 0.5 0 0 0 0 0.15 0 0 0 0 0.02 0 0 0 1 0"/>
<feBlend mode="normal" in2="effect2_dropShadow_28_18" result="effect3_dropShadow_28_18"/>
<feBlend mode="normal" in="SourceGraphic" in2="effect3_dropShadow_28_18" result="shape"/>
<feColorMatrix in="SourceAlpha" type="matrix" values="0 0 0 0 0 0 0 0 0 0 0 0 0 0 0 0 0 0 127 0" result="hardAlpha"/>
<feOffset dx="-3" dy="-3"/>
<feGaussianBlur stdDeviation="2"/>
<feComposite in2="hardAlpha" operator="arithmetic" k2="-1" k3="1"/>
<feColorMatrix type="matrix" values="0 0 0 0 1 0 0 0 0 0.88 0 0 0 0 0.55 0 0 0 0.65 0"/>
<feBlend mode="normal" in2="shape" result="effect4_innerShadow_28_18"/>
</filter>
<clipPath id="clip0_28_18">
<rect width="2000" height="2000" rx="293" fill="white"/>
</clipPath>
</defs>
</svg>
