<svg xmlns="http://www.w3.org/2000/svg" viewBox="0 0 1080 1080">
  <rect width="1080" height="1080" rx="240" ry="240" fill="#fbf4e8"/>
  <g fill="#3d2921" transform="translate(540 540) scale(1.6) translate(-795.5 -276.5)">
    <path d="M854.22,252.72c-50.85,0-92.08,41.22-92.08,92.08,0-50.85-41.22-92.08-92.08-92.08,50.85,0,92.08-41.24,92.08-92.09,0,50.85,41.22,92.09,92.08,92.09Z"/>
    <path d="M921.23,344.8c-26.05,0-47.18,21.12-47.18,47.18,0-26.05-21.12-47.18-47.18-47.18,26.05,0,47.18-21.13,47.18-47.19,0,26.05,21.12,47.19,47.18,47.19Z"/>
  </g>
</svg>
